<svg width="47" height="50" viewBox="0 0 47 50" fill="none" xmlns="http://www.w3.org/2000/svg">
<g id="Assistente" clip-path="url(#clip0_26_49)">
<path id="Vector" fill-rule="evenodd" clip-rule="evenodd" d="M23.5 50C10.5207 50 0 38.8078 0 25C0 11.1922 10.5207 0 23.5 0C36.4793 0 47 11.1922 47 25C47 38.8078 36.4793 50 23.5 50ZM23.9113 36.4453C25.4211 37.5563 27.3364 38.2172 29.4103 38.2172C29.9258 38.2172 30.4354 38.1766 30.9363 38.0969C31.1081 38.1719 31.2741 38.2641 31.4782 38.3891C31.9189 38.6641 32.5078 39.0859 33.2407 39.6547C33.8415 40.1219 34.6919 39.6703 34.6919 38.8844V36.6016C35.0003 36.3891 35.2911 36.1594 35.5658 35.9109C37.2255 34.4141 38.1875 32.3672 38.1875 30.1719C38.1875 28.7266 37.7763 27.375 37.0536 26.2078C36.8258 27.0367 36.5172 27.8379 36.1327 28.5984C36.2855 29.1031 36.3663 29.6297 36.3663 30.1719C36.3663 31.7875 35.6495 33.3125 34.3805 34.4563C34.0531 34.7505 33.7005 35.0115 33.3274 35.2359C33.1892 35.319 33.0741 35.4395 32.9939 35.5853C32.9136 35.731 32.8711 35.8967 32.8706 36.0656V37.0406C31.9997 36.4469 31.4019 36.1672 30.9466 36.1672C30.8954 36.1673 30.8443 36.1721 30.7938 36.1813C29.5177 36.4083 28.2096 36.3173 26.9721 35.9156C25.9699 36.1925 24.9457 36.3704 23.9127 36.4469L23.9113 36.4453ZM12.9456 31.8797C13.4299 32.3156 13.9423 32.7151 14.4789 33.075V36.9687C14.4789 37.9531 15.5438 38.5156 16.2943 37.9312C18.3652 36.3219 19.8046 35.4125 20.1645 35.3219C20.9958 35.4625 21.8447 35.5328 22.7025 35.5328C30.34 35.5328 36.5939 29.8969 36.5939 22.8453C36.5939 15.7922 30.3385 10.1562 22.7025 10.1562C15.0664 10.1562 8.8125 15.7922 8.8125 22.8437C8.8125 26.2969 10.3253 29.5172 12.9456 31.8797ZM20.2144 32.9203C19.4756 32.9203 18.3961 33.475 16.757 34.6453V32.4C16.7562 32.1886 16.7028 31.9812 16.6022 31.799C16.5016 31.6167 16.3573 31.4661 16.1842 31.3625C15.5618 30.9878 14.9737 30.5521 14.4275 30.0609C12.2934 28.1406 11.0891 25.5719 11.0891 22.8437C11.0891 17.2031 16.2532 12.55 22.7025 12.55C29.1532 12.55 34.3159 17.2031 34.3159 22.8437C34.3159 28.4844 29.1532 33.1391 22.7025 33.1391C21.924 33.1391 21.1559 33.0703 20.4053 32.9359C20.3422 32.9251 20.2783 32.9199 20.2144 32.9203ZM16.7819 25.2391C17.788 25.2391 18.6032 24.3797 18.6032 23.3234C18.6032 22.2656 17.788 21.4078 16.7819 21.4078C15.7758 21.4078 14.9607 22.2656 14.9607 23.3234C14.9607 24.3813 15.7758 25.2391 16.7819 25.2391ZM22.7025 25.2391C23.7086 25.2391 24.5237 24.3797 24.5237 23.3234C24.5237 22.2656 23.7086 21.4078 22.7025 21.4078C21.6964 21.4078 20.8812 22.2656 20.8812 23.3234C20.8812 24.3813 21.6964 25.2391 22.7025 25.2391ZM28.623 25.2391C29.6291 25.2391 30.4443 24.3797 30.4443 23.3234C30.4443 22.2656 29.6291 21.4078 28.623 21.4078C27.6169 21.4078 26.8017 22.2656 26.8017 23.3234C26.8017 24.3813 27.6169 25.2391 28.623 25.2391Z" fill="#0070AE"/>
</g>
<defs>
<clipPath id="clip0_26_49">
<rect width="47" height="50" fill="white"/>
</clipPath>
</defs>
</svg>
